<svg width="19" height="14" viewBox="0 0 19 14" fill="none" xmlns="http://www.w3.org/2000/svg">
<path d="M16.981 0.793541L16.9809 0.793543C16.7563 0.800236 16.543 0.893926 16.3862 1.05481L6.33323 11.1077L2.28068 7.0552C2.20113 6.97276 2.10601 6.9069 2.00083 6.86144L1.92149 7.04502L2.00083 6.86144C1.89499 6.81569 1.78109 6.79152 1.66579 6.79035C1.55049 6.78918 1.43611 6.81102 1.32936 6.8546C1.22261 6.89819 1.12563 6.96263 1.0441 7.04416C0.962562 7.1257 0.898117 7.22268 0.854534 7.32943C0.810951 7.43618 0.789106 7.55056 0.790279 7.66586C0.791452 7.78116 0.815619 7.89506 0.861365 8.0009C0.906824 8.10608 0.972683 8.2012 1.05513 8.28075L5.72045 12.9461L5.72048 12.9461C5.88301 13.1086 6.10342 13.1998 6.33323 13.1998C6.56304 13.1998 6.78344 13.1086 6.94597 12.9461L6.946 12.9461L17.6107 2.2814C17.611 2.28103 17.6114 2.28066 17.6118 2.28029C17.7364 2.15871 17.8215 2.00242 17.856 1.83176C17.8907 1.66058 17.8728 1.48293 17.8047 1.3221C17.7367 1.16126 17.6216 1.02474 17.4746 0.930419C17.3276 0.836103 17.1556 0.788393 16.981 0.793541Z" fill="white" stroke="white" stroke-width="0.4"/>
</svg>
